<svg xmlns="http://www.w3.org/2000/svg" viewBox="0 0 41.9 41.49"><defs><style>.cls-1{fill:#15e384;}.cls-2{fill:#174957;}</style></defs><g id="Layer_2" data-name="Layer 2"><g id="Capa_1" data-name="Capa 1"><path class="cls-1" d="M22.31,10.71a8.89,8.89,0,1,0,8.88,8.89A8.9,8.9,0,0,0,22.31,10.71Zm0,13.6A4.72,4.72,0,1,1,27,19.6,4.72,4.72,0,0,1,22.31,24.31Z"/><path class="cls-1" d="M41.9,19.6H37.63A15.32,15.32,0,0,0,7,19.6H2.71a19.6,19.6,0,1,1,39.19,0Z"/><polygon class="cls-2" points="3.72 41.49 17.74 27.4 17.74 28.87 17.74 33.55 22.31 33.55 22.31 19.55 17.72 19.55 17.34 19.55 13.04 19.55 8.27 19.55 8.27 24.12 13.04 24.12 14.6 24.12 0 38.22 3.72 41.49"/></g></g></svg>