<svg xmlns="http://www.w3.org/2000/svg" viewBox="0 0 28.7 43.15"><defs><style>.cls-1{fill:#154957;}.cls-2{fill:#15e384;}</style></defs><g id="Layer_2" data-name="Layer 2"><g id="Capa_1" data-name="Capa 1"><path class="cls-1" d="M14.36,43.15a1.77,1.77,0,0,1-1.58-.95l-11-20.76A14.65,14.65,0,0,1,1.94,7.25,14.15,14.15,0,0,1,13.56,0a13.93,13.93,0,0,1,1.71,0h0A14.12,14.12,0,0,1,26.78,7.28,14.74,14.74,0,0,1,27,21.48l-11,20.72A1.78,1.78,0,0,1,14.36,43.15ZM14.36,3c-.22,0-.44,0-.65,0A11,11,0,0,0,4.58,8.75,11.65,11.65,0,0,0,4.41,20l10,18.7,9.93-18.66a11.71,11.71,0,0,0-.16-11.28,10.93,10.93,0,0,0-9-5.71h0Z"/><path class="cls-2" d="M14.36,19.15a5.32,5.32,0,1,1,5.31-5.32A5.33,5.33,0,0,1,14.36,19.15Zm0-7.6a2.28,2.28,0,1,0,2.28,2.28A2.29,2.29,0,0,0,14.36,11.55Z"/></g></g></svg>