<svg xmlns="http://www.w3.org/2000/svg" viewBox="0 0 33.8 43.38"><defs><style>.cls-1{fill:#154957;}.cls-2{fill:#15e384;}</style></defs><g id="Layer_2" data-name="Layer 2"><g id="Capa_1" data-name="Capa 1"><path class="cls-1" d="M33.23,15.51,18.29.57a2,2,0,0,0-2.78,0L.57,15.51a2,2,0,0,0,0,2.78L9.08,26.8V42.44a.94.94,0,0,0,1.45.79l6.37-4.08,6.38,4.08a.94.94,0,0,0,1.44-.79V26.8l8.51-8.51A2,2,0,0,0,33.23,15.51ZM21.71,38.66,16.9,35.58l-4.81,3.08V29.8l3.42,3.43a2,2,0,0,0,2.78,0l3.42-3.43Zm-4.81-8.3L3.44,16.9,16.9,3.44,30.36,16.9Z"/><polygon class="cls-2" points="15.77 20.15 13.29 17.66 14.56 16.39 15.77 17.6 19.24 14.12 20.52 15.4 15.77 20.15"/></g></g></svg>