<svg xmlns="http://www.w3.org/2000/svg" viewBox="0 0 57.06 40.77"><defs><style>.cls-1{fill:#15e384;}.cls-2{fill:#154957;}</style></defs><g id="Layer_2" data-name="Layer 2"><g id="Capa_1" data-name="Capa 1"><path class="cls-1" d="M38.32,7H35.7a4.39,4.39,0,0,0-8.77,0H24.32a7,7,0,0,1,14,0Z"/><path class="cls-2" d="M27.82,37.86c-11.9,0-21.58-7.65-21.58-17,0-5,2.78-9.78,7.64-13L15.33,10c-4.12,2.74-6.48,6.7-6.48,10.84,0,8,8.51,14.43,19,14.43s19-6.47,19-14.43c0-3.77-1.91-7.34-5.38-10a6.9,6.9,0,0,0-1.93-1A7.56,7.56,0,0,0,37,9.3H20.31V6.68H37a9.92,9.92,0,0,1,3.33.57A9.18,9.18,0,0,1,43,8.7c4.12,3.22,6.39,7.52,6.39,12.11C49.41,30.21,39.73,37.86,27.82,37.86Z"/><path class="cls-2" d="M49.19,19.93A10.33,10.33,0,0,1,48,19.87l.3-2.6s4.34.45,7.17-1.84l1.64,2A12.76,12.76,0,0,1,49.19,19.93Z"/><path class="cls-2" d="M15.14,10.29H12.52V.66h1.31c.18,0,4.44,0,7.23,2.82a8.27,8.27,0,0,1,2.31,6.06H20.75c0-4.59-3.57-5.81-5.61-6.14Z"/><polygon class="cls-2" points="7.54 26.52 0 26.52 0 14.25 7.54 14.25 7.54 16.87 2.62 16.87 2.62 23.9 7.54 23.9 7.54 26.52"/><polygon class="cls-2" points="21.1 40.77 8.83 40.77 8.83 28.85 11.45 28.85 11.45 38.16 18.48 38.16 18.48 35.06 21.1 35.06 21.1 40.77"/><polygon class="cls-2" points="44.71 40.77 32.44 40.77 32.44 35.06 35.06 35.06 35.06 38.16 42.09 38.16 42.09 30.85 44.71 30.85 44.71 40.77"/><path class="cls-2" d="M20.61,18.58a2.13,2.13,0,1,1,2.12-2.13A2.14,2.14,0,0,1,20.61,18.58Zm0-2.62a.49.49,0,1,0,.49.49A.49.49,0,0,0,20.61,16Z"/></g></g></svg>