<svg xmlns="http://www.w3.org/2000/svg" viewBox="0 0 36.78 43.55"><defs><style>.cls-1{fill:#15e384;}.cls-2{fill:#154957;}</style></defs><g id="Layer_2" data-name="Layer 2"><g id="Capa_1" data-name="Capa 1"><path class="cls-1" d="M14.3,28v-.11H11V28a7.39,7.39,0,0,0,14.78,0v-.11H22.37V28a4,4,0,0,1-8.07,0Z"/><polygon class="cls-2" points="26.75 8.39 30.1 8.39 30.1 5.12 26.75 5.12 23.39 5.12 20.08 5.12 20.08 8.35 20.08 8.39 20.08 11.71 20.08 15.06 23.39 15.06 23.39 11.71 23.39 10.55 33.48 17.63 33.48 40.25 3.3 40.25 3.3 15.72 13.41 5.62 13.41 6.67 13.41 10.03 16.69 10.03 16.69 6.67 16.69 3.49 16.69 3.32 16.69 0 13.33 0 13.06 0 9.98 0 6.63 0 6.63 3.27 9.98 3.27 11.1 3.27 0 14.37 0 43.55 36.78 43.55 36.78 15.9 26.05 8.39 26.75 8.39"/></g></g></svg>