<?xml version="1.0" encoding="utf-8"?>
<!-- Generator: Adobe Illustrator 25.4.1, SVG Export Plug-In . SVG Version: 6.00 Build 0)  -->
<svg version="1.1" id="Layer_1" xmlns="http://www.w3.org/2000/svg" xmlns:xlink="http://www.w3.org/1999/xlink" x="0px" y="0px"
	 viewBox="0 0 37.7 43.8" style="enable-background:new 0 0 37.7 43.8;" xml:space="preserve">
<style type="text/css">
	.st0{fill:#15E384;}
</style>
<g id="Layer_2_00000060743990886854565410000010388970661889635763_">
	<g id="Layer_2-2">
		<path class="st0" d="M21.3,5V0H7.4v7.7L0,14.1v29.6h37.7V13.8L21.3,5z M22.3,27.5v-0.1h3v0.1c0,3.6-3,6.6-6.6,6.6s-6.6-3-6.6-6.6
			v-0.1h3v0.1c0,2,1.6,3.6,3.6,3.6S22.4,29.5,22.3,27.5L22.3,27.5z M22.3,24.4v-4.7h3v4.6L22.3,24.4z M15.2,24.4h-3v-4.7h3V24.4z
			 M35.3,41.4H2.4V15.3l11.4-9.9h-4V2.4h9v8.9h-2.9V7.4L5.4,16.5v21.9h27V16.5l-10.2-5.2V8.2l13.1,7.1L35.3,41.4z"/>
	</g>
</g>
</svg>
