<svg xmlns="http://www.w3.org/2000/svg" viewBox="0 0 95.76 53.55"><defs><style>.cls-1{fill:#15e384;}</style></defs><g id="Layer_2" data-name="Layer 2"><g id="Capa_1" data-name="Capa 1"><path class="cls-1" d="M26,6.07V0H9.09V9.43L0,17.32V53.55H46.15V16.92Zm1.29,27.48v-.12H31v.12a8.08,8.08,0,1,1-16.16,0v-.12h3.67v.12a4.41,4.41,0,0,0,8.82,0Zm0-3.73V24.16h3.66v5.66Zm-8.72,0H14.9V24.16h3.66ZM43.17,50.57H3V18.68L17,6.55H12.06V3h11V13.84H19.48V9L6.59,20.16V47h33V20.16L27.11,13.8V10l16.06,8.67Z"/><path class="cls-1" d="M53.46,21.28,55.11,21v2.15h2.53v1.38H55.11v2.9a2.09,2.09,0,0,0,.27,1.22,1.07,1.07,0,0,0,.93.37,3.12,3.12,0,0,0,.79-.09l.55-.18.28,1.31a7.24,7.24,0,0,1-.75.25,4.34,4.34,0,0,1-1.09.13,3.39,3.39,0,0,1-1.28-.21,1.82,1.82,0,0,1-.81-.59,2.31,2.31,0,0,1-.42-.94,6,6,0,0,1-.12-1.26Z"/><path class="cls-1" d="M65.08,30.07c-.32.08-.74.16-1.24.25a10.82,10.82,0,0,1-1.68.13,3.61,3.61,0,0,1-1.44-.25,2.29,2.29,0,0,1-.92-.68,2.72,2.72,0,0,1-.5-1,5.52,5.52,0,0,1-.15-1.33v-4H60.8v3.73a3.07,3.07,0,0,0,.33,1.64A1.34,1.34,0,0,0,62.3,29l.63,0a3.3,3.3,0,0,0,.5-.07V23.16h1.65Z"/><path class="cls-1" d="M70,26.73a4.22,4.22,0,0,1,.25-1.48,3.38,3.38,0,0,1,.7-1.19A3.08,3.08,0,0,1,72,23.27,3.6,3.6,0,0,1,73.48,23a5,5,0,0,1,1.9.37L75,24.7a3.56,3.56,0,0,0-.65-.2,3.13,3.13,0,0,0-.77-.09,1.83,1.83,0,0,0-1.47.61,2.62,2.62,0,0,0-.5,1.71,2.66,2.66,0,0,0,.48,1.68,1.89,1.89,0,0,0,1.6.62,4.58,4.58,0,0,0,.83-.08,3.54,3.54,0,0,0,.71-.21l.23,1.37a3.29,3.29,0,0,1-.82.24,6.12,6.12,0,0,1-1.14.11A4,4,0,0,1,72,30.18a2.93,2.93,0,0,1-1.12-.78,3,3,0,0,1-.66-1.18A4.79,4.79,0,0,1,70,26.73Z"/><path class="cls-1" d="M79.14,23a3.93,3.93,0,0,1,1.38.21,2.08,2.08,0,0,1,.89.57,2.25,2.25,0,0,1,.48.89A4.65,4.65,0,0,1,82,25.8v4.32l-1.15.2a12.85,12.85,0,0,1-1.74.11A5.39,5.39,0,0,1,78,30.31a2.46,2.46,0,0,1-.9-.39,1.94,1.94,0,0,1-.59-.71,2.48,2.48,0,0,1-.21-1.08,2,2,0,0,1,.24-1,2,2,0,0,1,.64-.69A2.67,2.67,0,0,1,78.1,26a5.13,5.13,0,0,1,1.12-.12,3.86,3.86,0,0,1,.58,0,5.74,5.74,0,0,1,.64.11v-.27a2.51,2.51,0,0,0-.07-.55,1.22,1.22,0,0,0-.24-.45,1.07,1.07,0,0,0-.45-.31,2,2,0,0,0-.7-.11,5.71,5.71,0,0,0-1,.09,3.71,3.71,0,0,0-.78.19L77,23.31a8.18,8.18,0,0,1,.91-.22A7.44,7.44,0,0,1,79.14,23Zm.14,6.15A5.64,5.64,0,0,0,80.44,29V27.22a2.14,2.14,0,0,0-.4-.08,3.32,3.32,0,0,0-.57,0,3.39,3.39,0,0,0-.55,0,1.6,1.6,0,0,0-.51.15,1,1,0,0,0-.13,1.61A1.92,1.92,0,0,0,79.28,29.13Z"/><path class="cls-1" d="M85.83,29.1a2.08,2.08,0,0,0,1-.16.55.55,0,0,0,.3-.54.7.7,0,0,0-.32-.58,4.64,4.64,0,0,0-1.05-.51,7.16,7.16,0,0,1-.83-.34,3.11,3.11,0,0,1-.64-.43,1.66,1.66,0,0,1-.43-.59,2,2,0,0,1-.16-.85,1.86,1.86,0,0,1,.72-1.55,3.09,3.09,0,0,1,2-.57,5.81,5.81,0,0,1,1.2.12,6.86,6.86,0,0,1,.86.22l-.3,1.34a4.26,4.26,0,0,0-.69-.23,4.8,4.8,0,0,0-1-.1,1.74,1.74,0,0,0-.81.17.57.57,0,0,0-.32.53.62.62,0,0,0,.07.31.68.68,0,0,0,.21.25,1.74,1.74,0,0,0,.39.23,4.66,4.66,0,0,0,.6.24,10,10,0,0,1,1,.43,2.57,2.57,0,0,1,.68.48,1.56,1.56,0,0,1,.39.6,2.49,2.49,0,0,1,.12.82A1.76,1.76,0,0,1,88,29.94a3.73,3.73,0,0,1-2.15.52,5.69,5.69,0,0,1-1.52-.16,7.37,7.37,0,0,1-.8-.25l.29-1.37a6.9,6.9,0,0,0,.87.28A4.58,4.58,0,0,0,85.83,29.1Z"/><path class="cls-1" d="M92.64,23a3.91,3.91,0,0,1,1.37.21,2.06,2.06,0,0,1,1.37,1.46,4.22,4.22,0,0,1,.14,1.15v4.32c-.25.05-.63.12-1.15.2a12.8,12.8,0,0,1-1.73.11,5.26,5.26,0,0,1-1.17-.12,2.44,2.44,0,0,1-.91-.39,1.91,1.91,0,0,1-.58-.71,2.34,2.34,0,0,1-.22-1.08,1.93,1.93,0,0,1,.89-1.72A2.6,2.6,0,0,1,91.6,26a5.06,5.06,0,0,1,1.12-.12,3.82,3.82,0,0,1,.57,0,5.74,5.74,0,0,1,.64.11v-.27a2,2,0,0,0-.07-.55,1,1,0,0,0-.24-.45,1.1,1.1,0,0,0-.44-.31,2,2,0,0,0-.71-.11,5.52,5.52,0,0,0-1,.09,3.71,3.71,0,0,0-.78.19l-.21-1.34a8.47,8.47,0,0,1,.92-.22A7.35,7.35,0,0,1,92.64,23Zm.13,6.15A5.57,5.57,0,0,0,93.93,29V27.22a2,2,0,0,0-.39-.08,3.52,3.52,0,0,0-.58,0,3.48,3.48,0,0,0-.55,0,1.62,1.62,0,0,0-.5.15.88.88,0,0,0-.36.3.89.89,0,0,0-.14.5.86.86,0,0,0,.37.81A1.88,1.88,0,0,0,92.77,29.13Z"/><path class="cls-1" d="M58.66,53.39a13.2,13.2,0,0,1-1.49-.09c-.52-.07-1-.15-1.52-.25s-.93-.22-1.33-.34a9.91,9.91,0,0,1-.94-.34l.76-3.25a16.71,16.71,0,0,0,1.74.61,8.92,8.92,0,0,0,2.63.33,4.13,4.13,0,0,0,2.64-.68,2.45,2.45,0,0,0,.54-3,2.33,2.33,0,0,0-.83-.79,3.7,3.7,0,0,0-1.24-.42A9.34,9.34,0,0,0,58.09,45H56.57V41.89H58.3a5.8,5.8,0,0,0,1.11-.1,3,3,0,0,0,1-.35,1.9,1.9,0,0,0,.67-.68,2.12,2.12,0,0,0,.25-1.09,1.69,1.69,0,0,0-.21-.86,2,2,0,0,0-.53-.61,2.65,2.65,0,0,0-.76-.35,3.28,3.28,0,0,0-.88-.12,6.3,6.3,0,0,0-2.08.34,8.77,8.77,0,0,0-1.74.84l-1.39-2.85c.28-.18.61-.36,1-.55A11,11,0,0,1,55.91,35a14.07,14.07,0,0,1,1.46-.39A8.5,8.5,0,0,1,59,34.43a9.09,9.09,0,0,1,2.77.38,5.39,5.39,0,0,1,1.92,1.07,4.3,4.3,0,0,1,1.12,1.63,5.3,5.3,0,0,1,.37,2A4.17,4.17,0,0,1,63,43.14a4.7,4.7,0,0,1,2.18,1.71,4.77,4.77,0,0,1,.77,2.74,6.42,6.42,0,0,1-.41,2.32,4.76,4.76,0,0,1-1.31,1.84A6.28,6.28,0,0,1,61.92,53,10.8,10.8,0,0,1,58.66,53.39Z"/><path class="cls-1" d="M75.23,41.42a8.24,8.24,0,0,1,2.9.46,5.49,5.49,0,0,1,2,1.24A4.86,4.86,0,0,1,81.18,45a7.37,7.37,0,0,1,.34,2.22,6.64,6.64,0,0,1-.38,2.15,6,6,0,0,1-1.16,2,5.89,5.89,0,0,1-2,1.46,6.29,6.29,0,0,1-2.81.58,6.09,6.09,0,0,1-5-2.07,8.75,8.75,0,0,1-1.7-5.7A12.39,12.39,0,0,1,69.34,41a9.23,9.23,0,0,1,2.32-3.39,10.19,10.19,0,0,1,3.64-2.09,15.49,15.49,0,0,1,4.8-.75c0,.54.07,1.07.11,1.59s.07,1,.1,1.61a15,15,0,0,0-2.5.24,8.25,8.25,0,0,0-2.12.7A5.62,5.62,0,0,0,74,40.08a5.14,5.14,0,0,0-1.1,1.81,5,5,0,0,1,1.18-.36A6.52,6.52,0,0,1,75.23,41.42Zm-.49,3a7.64,7.64,0,0,0-1.23.1,4.2,4.2,0,0,0-1,.29c0,.07,0,.18,0,.32s0,.26,0,.36a11.12,11.12,0,0,0,.13,1.78A5.41,5.41,0,0,0,73,48.78a2.46,2.46,0,0,0,.84,1,2.27,2.27,0,0,0,1.31.35,2.12,2.12,0,0,0,1.11-.27,2.4,2.4,0,0,0,.76-.69,3.08,3.08,0,0,0,.45-.93,3.87,3.87,0,0,0,.14-1,2.89,2.89,0,0,0-.67-2A2.93,2.93,0,0,0,74.74,44.46Z"/><path class="cls-1" d="M91.86,47.65a2.69,2.69,0,0,0-.34-1.34,2.58,2.58,0,0,0-1.18-1,8.39,8.39,0,0,0-2.25-.6,25,25,0,0,0-3.56-.21c.19-1.62.34-3.27.47-4.94s.22-3.25.29-4.72H95.1v3.27H88.56c0,.63-.08,1.24-.12,1.82s-.09,1.1-.14,1.54a9.73,9.73,0,0,1,5.64,1.79,5.27,5.27,0,0,1,1.82,4.25,5.94,5.94,0,0,1-.45,2.33A5,5,0,0,1,94,51.71a6.34,6.34,0,0,1-2.24,1.23,10,10,0,0,1-3.16.45,12.89,12.89,0,0,1-1.48-.09c-.51-.07-1-.15-1.49-.24s-.91-.2-1.29-.3a4.82,4.82,0,0,1-.89-.32l.7-3.22a11.66,11.66,0,0,0,1.73.57,10.67,10.67,0,0,0,2.57.27A3.88,3.88,0,0,0,91,49.34,2.2,2.2,0,0,0,91.86,47.65Z"/></g></g></svg>